<?xml version="1.0" encoding="UTF-8" standalone="no"?>
<svg xmlns="http://www.w3.org/2000/svg" width="6990" height="2759" viewBox="0 0 6990 2759">
  <path d="M 310 1215 L 602 1699 L 1228 2267 L 1706 2361 L 2815 2337 L 2845 2434 L 3222 2352 L 3833 2357 L 4136 2434 L 4166 2337 L 5220 2363 L 5667 2301 L 5928 2146 L 6519 1523 L 6671 1222 L 5907 1842 L 5568 1966 L 5166 2004 L 4166 1987 L 4131 1884 L 3721 1968 L 3131 1960 L 2850 1884 L 2815 1987 L 1494 1975 L 937 1761 Z M 5362 1185 L 5254 1337 L 5359 1488 L 5725 1488 L 5759 1534 L 5725 1575 L 5359 1575 L 5255 1687 L 5811 1687 L 5919 1535 L 5814 1386 L 5448 1386 L 5413 1339 L 5448 1297 L 5813 1297 L 5918 1185 Z M 4428 1185 L 4428 1773 L 4573 1688 L 4574 1371 L 4752 1625 L 4847 1625 L 5025 1372 L 5026 1687 L 5171 1687 L 5171 1185 L 5007 1185 L 4801 1482 L 4592 1185 Z M 3817 1185 L 3708 1299 L 3708 1573 L 3817 1687 L 4218 1687 L 4327 1573 L 4327 1299 L 4218 1185 Z M 3853 1298 L 4181 1297 L 4182 1574 L 3854 1575 Z M 3329 1773 L 3474 1687 L 3474 1298 L 3617 1297 L 3721 1185 L 3081 1185 L 3185 1297 L 3329 1298 Z M 2461 1185 L 2353 1337 L 2458 1488 L 2824 1488 L 2858 1534 L 2824 1575 L 2458 1575 L 2354 1687 L 2910 1687 L 3018 1535 L 2913 1386 L 2547 1386 L 2512 1339 L 2547 1297 L 2912 1297 L 3017 1185 Z M 1170 1185 L 1061 1299 L 1061 1575 L 1169 1687 L 1511 1687 L 1617 1575 L 1206 1574 L 1206 1298 L 1529 1297 L 1634 1185 Z M 1689 1099 L 1689 1573 L 1798 1687 L 2163 1687 L 2272 1573 L 2272 1185 L 2127 1185 L 2126 1575 L 1835 1575 L 1834 1185 Z M 5275 1026 L 5439 929 L 5439 662 L 5722 363 L 5530 363 L 5359 543 L 5184 363 L 4991 363 L 5275 662 Z M 4428 363 L 4305 491 L 4305 800 L 4428 929 L 4880 929 L 5002 801 L 5000 488 L 4880 363 Z M 4469 490 L 4838 489 L 4839 801 L 4470 802 Z M 3530 363 L 3823 929 L 3976 929 L 4268 366 L 4101 364 L 3897 747 L 3696 364 Z M 2766 363 L 2766 1026 L 2929 929 L 2930 601 L 3313 929 L 3437 929 L 3437 363 L 3274 363 L 3273 698 L 2883 363 Z M 2077 363 L 1954 492 L 1954 800 L 2077 929 L 2529 929 L 2652 800 L 2651 490 L 2529 363 Z M 2118 490 L 2487 489 L 2488 801 L 2119 802 Z M 1392 363 L 1270 491 L 1270 803 L 1393 929 L 1777 929 L 1897 802 L 1433 801 L 1433 490 L 1798 489 L 1916 363 Z" fill="#000000" fill-rule="evenodd"/>
</svg>
